<?xml version="1.0" encoding="utf-8"?>
<!-- Generator: Adobe Illustrator 24.1.2, SVG Export Plug-In . SVG Version: 6.00 Build 0)  -->
<svg version="1.1" id="Layer_1" xmlns="http://www.w3.org/2000/svg" xmlns:xlink="http://www.w3.org/1999/xlink" x="0px" y="0px"
	 viewBox="0 0 21.9 20" style="enable-background:new 0 0 21.9 20;" xml:space="preserve">
<style type="text/css">
	.st0{fill:#FFE706;}
	.st1{fill:url(#SVGID_1_);}
	.st2{fill:#FFFFFF;}
</style>
<g>
	<g>
		<g>
			<path d="M19.6,2.3c-1.7-1.7-4-2.4-6.4-1.8C12,0.7,11.3,1,10.2,1.8C8.9,1.3,8.2,1.2,7,1.2C4.6,1.3,2.5,2.5,1.3,4.5
				C0,6.6-0.1,9.2,1.1,11.5c0.8,1.5,2,3.1,3.4,4.3c1.9,1.7,3.8,2.8,6.2,3.6c0.5,0.2,1.1,0.3,1.6,0.3c0.1,0,0.1,0,0.2,0
				c0.5-0.1,1-0.4,1.5-0.7c2.1-1.4,3.7-2.9,5.1-5c1.1-1.6,1.9-3.3,2.3-5C22,6.5,21.3,4,19.6,2.3z"/>
			<path d="M12.4,20c-0.6,0-1.2-0.1-1.7-0.3c-2.5-0.9-4.3-2-6.3-3.7c-1.5-1.3-2.7-2.8-3.5-4.4c-1.2-2.3-1.1-5,0.2-7.2
				C2.3,2.3,4.5,1,7,0.9c1.1,0,1.9,0.1,3.1,0.6c1.1-0.8,1.8-1.1,2.9-1.3c2.5-0.6,4.9,0.1,6.7,1.9l0,0c1.8,1.8,2.5,4.4,2,6.9
				c-0.4,1.7-1.2,3.5-2.3,5.1c-1.5,2.1-3.1,3.7-5.2,5.1c-0.5,0.3-1,0.6-1.6,0.7C12.5,20,12.4,20,12.4,20z M7.4,1.5
				c-0.1,0-0.2,0-0.4,0C4.7,1.5,2.7,2.7,1.5,4.7c-1.2,2-1.3,4.5-0.2,6.7c0.8,1.5,2,3,3.4,4.2c1.9,1.7,3.8,2.7,6.1,3.6
				c0.5,0.2,1,0.3,1.6,0.3c0,0,0.1,0,0.1,0c0.5-0.1,1-0.3,1.4-0.7c2.1-1.4,3.6-2.9,5.1-5c1.1-1.5,1.9-3.3,2.2-4.9
				c0.5-2.4-0.2-4.8-1.8-6.5l0,0c-1.6-1.6-3.9-2.3-6.2-1.7c-1.1,0.2-1.8,0.5-2.8,1.3l-0.1,0.1l-0.1-0.1C9,1.6,8.3,1.5,7.4,1.5z"/>
		</g>
		<g>
			<g>
				<g>
					<path d="M13.3,1c-1.1,0.2-1.7,0.5-3,1.5C8.8,1.8,8.1,1.8,7,1.8c-4.8,0.1-7.6,5.1-5.4,9.4c0.8,1.5,2,3,3.3,4.1
						c1.8,1.6,3.6,2.6,6,3.5c0.5,0.2,1,0.3,1.4,0.3l0,0c0,0,0,0,0,0c0,0,0,0,0,0l0,0c0.4-0.1,0.9-0.3,1.3-0.6c2.2-1.5,3.6-2.9,5-4.9
						c1-1.4,1.8-3.1,2.2-4.8C21.9,4.1,17.9,0,13.3,1z"/>
					<path d="M12.4,19.7c-0.6,0-1.1-0.1-1.6-0.3c-2.4-0.9-4.3-2-6.2-3.6c-1.4-1.2-2.6-2.8-3.4-4.3C-0.1,9.2,0,6.6,1.3,4.5
						C2.5,2.5,4.6,1.3,7,1.2c1.2,0,1.9,0.1,3.2,0.6C11.3,1,12,0.7,13.1,0.4l0,0c2.4-0.5,4.7,0.1,6.4,1.8C21.3,4,22,6.5,21.4,8.9
						c-0.4,1.7-1.2,3.5-2.3,5c-1.5,2.1-3,3.6-5.1,5c-0.5,0.3-1,0.5-1.5,0.7C12.5,19.7,12.4,19.7,12.4,19.7z M7.4,2.4
						c-0.1,0-0.2,0-0.4,0C5,2.5,3.3,3.5,2.3,5.2c-1,1.7-1.1,3.9-0.2,5.8c0.7,1.4,1.8,2.8,3.1,3.9c1.8,1.6,3.6,2.6,5.9,3.4
						c0.4,0.1,0.8,0.2,1.2,0.2c0.4-0.1,0.7-0.3,1.1-0.5c2-1.3,3.5-2.8,4.8-4.7c1-1.4,1.7-3.1,2.1-4.6c0.5-2.1-0.1-4.1-1.6-5.6
						c-1.4-1.4-3.3-1.9-5.3-1.5c-1,0.2-1.6,0.4-2.7,1.4c-0.2,0.1-0.4,0.2-0.6,0.1C8.9,2.5,8.2,2.4,7.4,2.4z"/>
				</g>
			</g>
			<g>
				<path class="st0" d="M13.1,0.8c-1.1,0.2-1.7,0.5-3,1.5C8.7,1.6,8,1.6,6.9,1.6C2.1,1.7-0.7,6.8,1.5,11c0.8,1.5,2,3,3.3,4.1
					c1.8,1.6,3.6,2.6,6,3.5c0.5,0.2,1,0.3,1.4,0.3l0,0c0,0,0,0,0,0c0,0,0,0,0,0l0,0c0.4-0.1,0.9-0.3,1.3-0.6c2.2-1.5,3.6-2.9,5-4.9
					c1-1.4,1.8-3.1,2.2-4.8C21.8,3.9,17.8-0.2,13.1,0.8z"/>
			</g>
			<g>
				<linearGradient id="SVGID_1_" gradientUnits="userSpaceOnUse" x1="18.7868" y1="21.2491" x2="-1.0874" y2="-12.821">
					<stop  offset="0.2512" style="stop-color:#E68300"/>
					<stop  offset="0.5371" style="stop-color:#E68300;stop-opacity:0"/>
				</linearGradient>
				<path class="st1" d="M13.1,0.8c-1.1,0.2-1.7,0.5-3,1.5C8.7,1.6,8,1.6,6.9,1.6C2.1,1.7-0.7,6.8,1.5,11c0.8,1.5,2,3,3.3,4.1
					c1.8,1.6,3.6,2.6,6,3.5c0.5,0.2,1,0.3,1.4,0.3l0,0c0,0,0,0,0,0c0,0,0,0,0,0l0,0c0.4-0.1,0.9-0.3,1.3-0.6c2.2-1.5,3.6-2.9,5-4.9
					c1-1.4,1.8-3.1,2.2-4.8C21.8,3.9,17.8-0.2,13.1,0.8z"/>
			</g>
			<path class="st0" d="M19.7,10.8C17,16,13,18.4,12.4,18.5s-1.6-0.3-1.6-0.3s1.9-0.1,4.7-2.5C18.1,13.5,19.7,10.8,19.7,10.8z"/>
			<path class="st2" d="M15.5,1.8c1.3,0.1,2.6,0.7,3.4,2.1c0.8,1.4,0.7,2.6,0.7,2.6S19.2,4.8,18,3.6C16.7,2.3,15.5,1.8,15.5,1.8z"/>
		</g>
	</g>
</g>
</svg>
